<?xml version="1.0" encoding="UTF-8" standalone="no"?>
<svg xmlns="http://www.w3.org/2000/svg" xmlns:xlink="http://www.w3.org/1999/xlink" width="800" height="600" viewBox="0 0 800 600">
  <rect width="800" height="600" fill="#f8f9fa"/>
  <text x="400" y="60" text-anchor="middle" font-family="Arial, sans-serif" font-size="32" font-weight="bold" fill="#1e4d2b">METHODOLOGY</text>
  
  <!-- Box 1: Frontend -->
  <rect x="50" y="120" width="200" height="150" rx="10" ry="10" fill="#d0e8ff" stroke="#0066cc" stroke-width="2"/>
  <text x="150" y="150" text-anchor="middle" font-family="Arial, sans-serif" font-size="18" font-weight="bold" fill="#0066cc">Frontend</text>
  <text x="150" y="180" text-anchor="middle" font-family="Arial, sans-serif" font-size="14" fill="#333">C# with WPF</text>
  <text x="150" y="205" text-anchor="middle" font-family="Arial, sans-serif" font-size="14" fill="#333">User Interface</text>
  <text x="150" y="230" text-anchor="middle" font-family="Arial, sans-serif" font-size="14" fill="#333">Health Alerts</text>
  <text x="150" y="255" text-anchor="middle" font-family="Arial, sans-serif" font-size="14" fill="#333">Data Visualization</text>
  
  <!-- Box 2: Backend -->
  <rect x="550" y="120" width="200" height="150" rx="10" ry="10" fill="#d5f5e3" stroke="#27ae60" stroke-width="2"/>
  <text x="650" y="150" text-anchor="middle" font-family="Arial, sans-serif" font-size="18" font-weight="bold" fill="#27ae60">Backend</text>
  <text x="650" y="180" text-anchor="middle" font-family="Arial, sans-serif" font-size="14" fill="#333">Python</text>
  <text x="650" y="205" text-anchor="middle" font-family="Arial, sans-serif" font-size="14" fill="#333">ML/DL Models</text>
  <text x="650" y="230" text-anchor="middle" font-family="Arial, sans-serif" font-size="14" fill="#333">MediaPipe & OpenCV</text>
  <text x="650" y="255" text-anchor="middle" font-family="Arial, sans-serif" font-size="14" fill="#333">SVM & Naïve Bayes</text>
  
  <!-- Box 3: Database -->
  <rect x="300" y="350" width="200" height="100" rx="10" ry="10" fill="#fadbd8" stroke="#e74c3c" stroke-width="2"/>
  <text x="400" y="380" text-anchor="middle" font-family="Arial, sans-serif" font-size="18" font-weight="bold" fill="#e74c3c">Database</text>
  <text x="400" y="410" text-anchor="middle" font-family="Arial, sans-serif" font-size="14" fill="#333">MongoDB</text>
  <text x="400" y="435" text-anchor="middle" font-family="Arial, sans-serif" font-size="14" fill="#333">Health Data Storage</text>
  
  <!-- Box 4: Modules -->
  <rect x="300" y="120" width="200" height="180" rx="10" ry="10" fill="#fff9c4" stroke="#f1c40f" stroke-width="2"/>
  <text x="400" y="150" text-anchor="middle" font-family="Arial, sans-serif" font-size="18" font-weight="bold" fill="#f39c12">Health Modules</text>
  <text x="400" y="180" text-anchor="middle" font-family="Arial, sans-serif" font-size="14" fill="#333">Eye Strain Detection</text>
  <text x="400" y="205" text-anchor="middle" font-family="Arial, sans-serif" font-size="14" fill="#333">Posture Detection</text>
  <text x="400" y="230" text-anchor="middle" font-family="Arial, sans-serif" font-size="14" fill="#333">Stress Monitoring</text>
  <text x="400" y="255" text-anchor="middle" font-family="Arial, sans-serif" font-size="14" fill="#333">Hydration Tracking</text>
  <text x="400" y="280" text-anchor="middle" font-family="Arial, sans-serif" font-size="14" fill="#333">TCP Socket Communication</text>
  
  <!-- Arrows -->
  <line x1="250" y1="195" x2="300" y2="195" stroke="#333" stroke-width="2"/>
  <polygon points="295,190 305,195 295,200" fill="#333"/>
  
  <line x1="500" y1="195" x2="550" y2="195" stroke="#333" stroke-width="2"/>
  <polygon points="545,190 555,195 545,200" fill="#333"/>
  
  <line x1="400" y1="300" x2="400" y2="350" stroke="#333" stroke-width="2"/>
  <polygon points="395,345 400,355 405,345" fill="#333"/>
  
  <line x1="150" y1="270" x2="150" y2="400" x2="300" y2="400" stroke="#333" stroke-width="2" fill="none"/>
  <polygon points="295,395 305,400 295,405" fill="#333"/>
  
  <line x1="650" y1="270" x2="650" y2="400" x2="500" y2="400" stroke="#333" stroke-width="2" fill="none"/>
  <polygon points="505,395 495,400 505,405" fill="#333"/>
  
  <!-- Legend -->
  <rect x="50" y="500" width="700" height="60" rx="5" ry="5" fill="#eee" stroke="#ccc" stroke-width="1"/>
  <text x="400" y="530" text-anchor="middle" font-family="Arial, sans-serif" font-size="14" fill="#333">The EDUGuard desktop application uses TCP socket communication between C# frontend and Python backend models for real-time health monitoring</text>
</svg>
