<?xml version="1.0" encoding="UTF-8" standalone="no"?>
<svg xmlns="http://www.w3.org/2000/svg" xmlns:xlink="http://www.w3.org/1999/xlink" width="800" height="600" viewBox="0 0 800 600">
  <rect width="800" height="600" fill="#f8f9fa"/>
  <text x="400" y="60" text-anchor="middle" font-family="Arial, sans-serif" font-size="32" font-weight="bold" fill="#1e4d2b">RESEARCH GAP</text>
  
  <rect x="30" y="100" width="740" height="60" fill="#57a74a"/>
  <text x="150" y="140" font-family="Arial, sans-serif" font-size="20" fill="white">Aspect</text>
  <text x="270" y="140" font-family="Arial, sans-serif" font-size="20" fill="white">Research [1]</text>
  <text x="380" y="140" font-family="Arial, sans-serif" font-size="20" fill="white">Research [2]</text>
  <text x="490" y="140" font-family="Arial, sans-serif" font-size="20" fill="white">Research [3]</text>
  <text x="600" y="140" font-family="Arial, sans-serif" font-size="20" fill="white">Research [4]</text>
  <text x="710" y="140" font-family="Arial, sans-serif" font-size="20" fill="white">Proposed</text>
  
  <!-- Row 1 -->
  <rect x="30" y="160" width="240" height="60" fill="#e8f2e8"/>
  <rect x="270" y="160" width="110" height="60" fill="#e8f2e8"/>
  <rect x="380" y="160" width="110" height="60" fill="#e8f2e8"/>
  <rect x="490" y="160" width="110" height="60" fill="#e8f2e8"/>
  <rect x="600" y="160" width="110" height="60" fill="#e8f2e8"/>
  <rect x="710" y="160" width="60" height="60" fill="#e8f2e8"/>
  
  <text x="40" y="195" font-family="Arial, sans-serif" font-size="12" fill="#333">Lack of comprehensive real-time monitoring.</text>
  <text x="325" y="195" font-family="Arial, sans-serif" font-size="24" fill="#333">✗</text>
  <text x="435" y="195" font-family="Arial, sans-serif" font-size="24" fill="#57a74a">✓</text>
  <text x="545" y="195" font-family="Arial, sans-serif" font-size="24" fill="#333">✗</text>
  <text x="655" y="195" font-family="Arial, sans-serif" font-size="24" fill="#57a74a">✓</text>
  <text x="740" y="195" font-family="Arial, sans-serif" font-size="24" fill="#57a74a">✓</text>
  
  <!-- Row 2 -->
  <rect x="30" y="220" width="240" height="60" fill="#f4f9f4"/>
  <rect x="270" y="220" width="110" height="60" fill="#f4f9f4"/>
  <rect x="380" y="220" width="110" height="60" fill="#f4f9f4"/>
  <rect x="490" y="220" width="110" height="60" fill="#f4f9f4"/>
  <rect x="600" y="220" width="110" height="60" fill="#f4f9f4"/>
  <rect x="710" y="220" width="60" height="60" fill="#f4f9f4"/>
  
  <text x="40" y="245" font-family="Arial, sans-serif" font-size="12" fill="#333">No desktop programs monitor real-time eye activity and posture maintenance.</text>
  <text x="325" y="245" font-family="Arial, sans-serif" font-size="24" fill="#333">✗</text>
  <text x="435" y="245" font-family="Arial, sans-serif" font-size="24" fill="#57a74a">✓</text>
  <text x="545" y="245" font-family="Arial, sans-serif" font-size="24" fill="#57a74a">✓</text>
  <text x="655" y="245" font-family="Arial, sans-serif" font-size="24" fill="#57a74a">✓</text>
  <text x="740" y="245" font-family="Arial, sans-serif" font-size="24" fill="#57a74a">✓</text>
  
  <!-- Row 3 -->
  <rect x="30" y="280" width="240" height="60" fill="#e8f2e8"/>
  <rect x="270" y="280" width="110" height="60" fill="#e8f2e8"/>
  <rect x="380" y="280" width="110" height="60" fill="#e8f2e8"/>
  <rect x="490" y="280" width="110" height="60" fill="#e8f2e8"/>
  <rect x="600" y="280" width="110" height="60" fill="#e8f2e8"/>
  <rect x="710" y="280" width="60" height="60" fill="#e8f2e8"/>
  
  <text x="40" y="305" font-family="Arial, sans-serif" font-size="12" fill="#333">Insufficient monitoring of eye blinking patterns and distance to the screen.</text>
  <text x="325" y="305" font-family="Arial, sans-serif" font-size="24" fill="#57a74a">✓</text>
  <text x="435" y="305" font-family="Arial, sans-serif" font-size="24" fill="#57a74a">✓</text>
  <text x="545" y="305" font-family="Arial, sans-serif" font-size="24" fill="#57a74a">✓</text>
  <text x="655" y="305" font-family="Arial, sans-serif" font-size="24" fill="#333">✗</text>
  <text x="740" y="305" font-family="Arial, sans-serif" font-size="24" fill="#57a74a">✓</text>
  
  <!-- Row 4 -->
  <rect x="30" y="340" width="240" height="60" fill="#f4f9f4"/>
  <rect x="270" y="340" width="110" height="60" fill="#f4f9f4"/>
  <rect x="380" y="340" width="110" height="60" fill="#f4f9f4"/>
  <rect x="490" y="340" width="110" height="60" fill="#f4f9f4"/>
  <rect x="600" y="340" width="110" height="60" fill="#f4f9f4"/>
  <rect x="710" y="340" width="60" height="60" fill="#f4f9f4"/>
  
  <text x="40" y="365" font-family="Arial, sans-serif" font-size="12" fill="#333">Insufficient tracking of continuous screen time.</text>
  <text x="325" y="365" font-family="Arial, sans-serif" font-size="24" fill="#333">✗</text>
  <text x="435" y="365" font-family="Arial, sans-serif" font-size="24" fill="#333">✗</text>
  <text x="545" y="365" font-family="Arial, sans-serif" font-size="24" fill="#333">✗</text>
  <text x="655" y="365" font-family="Arial, sans-serif" font-size="24" fill="#57a74a">✓</text>
  <text x="740" y="365" font-family="Arial, sans-serif" font-size="24" fill="#57a74a">✓</text>
  
  <!-- Row 5 -->
  <rect x="30" y="400" width="240" height="60" fill="#e8f2e8"/>
  <rect x="270" y="400" width="110" height="60" fill="#e8f2e8"/>
  <rect x="380" y="400" width="110" height="60" fill="#e8f2e8"/>
  <rect x="490" y="400" width="110" height="60" fill="#e8f2e8"/>
  <rect x="600" y="400" width="110" height="60" fill="#e8f2e8"/>
  <rect x="710" y="400" width="60" height="60" fill="#e8f2e8"/>
  
  <text x="40" y="425" font-family="Arial, sans-serif" font-size="12" fill="#333">Response to increased remote work due to COVID-19</text>
  <text x="325" y="425" font-family="Arial, sans-serif" font-size="24" fill="#333">✗</text>
  <text x="435" y="425" font-family="Arial, sans-serif" font-size="24" fill="#333">✗</text>
  <text x="545" y="425" font-family="Arial, sans-serif" font-size="24" fill="#333">✗</text>
  <text x="655" y="425" font-family="Arial, sans-serif" font-size="24" fill="#333">✗</text>
  <text x="740" y="425" font-family="Arial, sans-serif" font-size="24" fill="#57a74a">✓</text>
  
  <!-- Row 6 -->
  <rect x="30" y="460" width="240" height="60" fill="#f4f9f4"/>
  <rect x="270" y="460" width="110" height="60" fill="#f4f9f4"/>
  <rect x="380" y="460" width="110" height="60" fill="#f4f9f4"/>
  <rect x="490" y="460" width="110" height="60" fill="#f4f9f4"/>
  <rect x="600" y="460" width="110" height="60" fill="#f4f9f4"/>
  <rect x="710" y="460" width="60" height="60" fill="#f4f9f4"/>
  
  <text x="40" y="485" font-family="Arial, sans-serif" font-size="12" fill="#333">Control the brightness level of multiple monitors.</text>
  <text x="325" y="485" font-family="Arial, sans-serif" font-size="24" fill="#333">✗</text>
  <text x="435" y="485" font-family="Arial, sans-serif" font-size="24" fill="#333">✗</text>
  <text x="545" y="485" font-family="Arial, sans-serif" font-size="24" fill="#57a74a">✓</text>
  <text x="655" y="485" font-family="Arial, sans-serif" font-size="24" fill="#333">✗</text>
  <text x="740" y="485" font-family="Arial, sans-serif" font-size="24" fill="#57a74a">✓</text>
  
  <!-- Row 7 -->
  <rect x="30" y="520" width="240" height="60" fill="#e8f2e8"/>
  <rect x="270" y="520" width="110" height="60" fill="#e8f2e8"/>
  <rect x="380" y="520" width="110" height="60" fill="#e8f2e8"/>
  <rect x="490" y="520" width="110" height="60" fill="#e8f2e8"/>
  <rect x="600" y="520" width="110" height="60" fill="#e8f2e8"/>
  <rect x="710" y="520" width="60" height="60" fill="#e8f2e8"/>
  
  <text x="40" y="545" font-family="Arial, sans-serif" font-size="12" fill="#333">Reminding System using mobile application to Reduce Symptoms of Computer Vision</text>
  <text x="325" y="545" font-family="Arial, sans-serif" font-size="24" fill="#333">✗</text>
  <text x="435" y="545" font-family="Arial, sans-serif" font-size="24" fill="#333">✗</text>
  <text x="545" y="545" font-family="Arial, sans-serif" font-size="24" fill="#333">✗</text>
  <text x="655" y="545" font-family="Arial, sans-serif" font-size="24" fill="#333">✗</text>
  <text x="740" y="545" font-family="Arial, sans-serif" font-size="24" fill="#57a74a">✓</text>
</svg>
